<?xml version="1.0" encoding="UTF-8" standalone="no"?>
<!DOCTYPE svg PUBLIC "-//W3C//DTD SVG 1.1//EN" "http://www.w3.org/Graphics/SVG/1.1/DTD/svg11.dtd">
<svg width="100%" height="100%" viewBox="0 0 300 300" version="1.1" xmlns="http://www.w3.org/2000/svg" xmlns:xlink="http://www.w3.org/1999/xlink" xml:space="preserve" xmlns:serif="http://www.serif.com/" style="fill-rule:evenodd;clip-rule:evenodd;stroke-linejoin:round;stroke-miterlimit:2;">
    <g>
        <g transform="matrix(0.658101,0.403117,-0.403117,0.658101,145.193,-43.8362)">
            <path d="M222.261,115.933C224.413,116.695 226.476,117.645 228.429,118.764L245.209,109.74L255.048,122.425L242.971,133.631C244.299,136.074 245.366,138.679 246.136,141.408L263.076,143.853L263.076,160.739L246.136,162.014C245.48,164.34 244.608,166.575 243.543,168.696L254.372,181.087L244.451,192.22L229.564,183.981C227.28,185.397 224.834,186.578 222.261,187.489L220.911,203.486L199.609,203.486L196.966,187.489C194.393,186.578 191.947,185.398 189.662,183.981L176.697,192.463L164.235,181.168L175.684,168.696C174.618,166.574 173.746,164.339 173.091,162.014L156.105,159.843L156.105,144.663L173.091,141.408C173.747,139.082 174.619,136.847 175.684,134.726L163.122,122.85L172.988,109.693L189.662,119.441C191.947,118.025 194.393,116.844 196.966,115.933L200.105,96.514L220.891,96.514L222.261,115.933ZM209.591,125.611C224.875,125.611 237.283,138.02 237.283,153.304C237.283,168.588 224.875,180.997 209.591,180.997C194.307,180.997 181.898,168.588 181.898,153.304C181.898,138.02 194.307,125.611 209.591,125.611Z" style="fill:url(#_Linear1);"/>
        </g>
        <g transform="matrix(0.547211,-0.405616,0.405616,0.547211,19.9091,186.66)">
            <path d="M146.952,118.201C150.057,119.299 153.034,120.671 155.854,122.286L180.068,109.262L194.267,127.568L176.838,143.74C178.755,147.266 180.295,151.025 181.406,154.963L205.853,158.491L205.853,182.86L181.406,184.7C180.459,188.056 179.201,191.282 177.664,194.342L193.291,212.223L178.975,228.29L157.492,216.4C154.194,218.444 150.665,220.148 146.952,221.462L145.003,244.547L114.264,244.547L110.449,221.462C106.736,220.148 103.206,218.445 99.909,216.4L81.198,228.641L63.215,212.341L79.736,194.342C78.199,191.28 76.941,188.055 75.995,184.7L51.482,181.567L51.482,159.66L75.995,154.963C76.941,151.607 78.2,148.381 79.736,145.32L61.609,128.182L75.847,109.195L99.909,123.263C103.206,121.219 106.736,119.515 110.449,118.201L114.978,90.177L144.975,90.177L146.952,118.201ZM128.7,142.455C143.809,142.455 156.076,154.722 156.076,169.831C156.076,184.94 143.809,197.207 128.7,197.207C113.591,197.207 101.324,184.94 101.324,169.831C101.324,154.722 113.591,142.455 128.7,142.455Z" style="fill:url(#_Linear2);"/>
        </g>
        <g transform="matrix(0.831185,-0.273042,0.273042,0.831185,-39.9276,1.90551)">
            <path d="M146.952,118.201C150.057,119.299 153.034,120.671 155.854,122.286L180.068,109.262L194.267,127.568L176.838,143.74C178.755,147.266 180.295,151.025 181.406,154.963L205.853,158.491L205.853,182.86L181.406,184.7C180.459,188.056 179.201,191.282 177.664,194.342L193.291,212.223L178.975,228.29L157.492,216.4C154.194,218.444 150.665,220.148 146.952,221.462L145.003,244.547L114.264,244.547L110.449,221.462C106.736,220.148 103.206,218.445 99.909,216.4L81.198,228.641L63.215,212.341L79.736,194.342C78.199,191.28 76.941,188.055 75.995,184.7L51.482,181.567L51.482,159.66L75.995,154.963C76.941,151.607 78.2,148.381 79.736,145.32L61.609,128.182L75.847,109.195L99.909,123.263C103.206,121.219 106.736,119.515 110.449,118.201L114.978,90.177L144.975,90.177L146.952,118.201ZM128.7,142.455C143.809,142.455 156.076,154.722 156.076,169.831C156.076,184.94 143.809,197.207 128.7,197.207C113.591,197.207 101.324,184.94 101.324,169.831C101.324,154.722 113.591,142.455 128.7,142.455Z" style="fill:url(#_Linear3);"/>
        </g>
    </g>
    <path d="M150,0C232.787,0 300,67.213 300,150C300,232.787 232.787,300 150,300C67.213,300 0,232.787 0,150C0,67.213 67.213,0 150,0ZM150,16.796C223.517,16.796 283.204,76.483 283.204,150C283.204,223.517 223.517,283.204 150,283.204C76.483,283.204 16.796,223.517 16.796,150C16.796,76.483 76.483,16.796 150,16.796Z" style="fill:url(#_Linear4);"/>
    <defs>
        <linearGradient id="_Linear1" x1="0" y1="0" x2="1" y2="0" gradientUnits="userSpaceOnUse" gradientTransform="matrix(101.491,-292.814,292.814,101.491,63.3215,371.425)"><stop offset="0" style="stop-color:rgb(5,255,161);stop-opacity:1"/><stop offset="0.5" style="stop-color:rgb(1,205,254);stop-opacity:1"/><stop offset="1" style="stop-color:rgb(255,113,206);stop-opacity:1"/></linearGradient>
        <linearGradient id="_Linear2" x1="0" y1="0" x2="1" y2="0" gradientUnits="userSpaceOnUse" gradientTransform="matrix(350.692,-17.4378,17.4378,350.692,-14.183,61.6074)"><stop offset="0" style="stop-color:rgb(5,255,161);stop-opacity:1"/><stop offset="0.5" style="stop-color:rgb(1,205,254);stop-opacity:1"/><stop offset="1" style="stop-color:rgb(255,113,206);stop-opacity:1"/></linearGradient>
        <linearGradient id="_Linear3" x1="0" y1="0" x2="1" y2="0" gradientUnits="userSpaceOnUse" gradientTransform="matrix(254.856,-98.8974,98.8974,254.856,3.70197,270.975)"><stop offset="0" style="stop-color:rgb(5,255,161);stop-opacity:1"/><stop offset="0.5" style="stop-color:rgb(1,205,254);stop-opacity:1"/><stop offset="1" style="stop-color:rgb(255,113,206);stop-opacity:1"/></linearGradient>
        <linearGradient id="_Linear4" x1="0" y1="0" x2="1" y2="0" gradientUnits="userSpaceOnUse" gradientTransform="matrix(300,-300,300,300,0,300)"><stop offset="0" style="stop-color:rgb(255,113,206);stop-opacity:1"/><stop offset="0.42" style="stop-color:rgb(185,103,255);stop-opacity:1"/><stop offset="0.5" style="stop-color:rgb(1,205,254);stop-opacity:1"/><stop offset="1" style="stop-color:rgb(5,255,161);stop-opacity:1"/></linearGradient>
    </defs>
</svg>
