<?xml version="1.0" encoding="UTF-8" standalone="no"?>
<!DOCTYPE svg PUBLIC "-//W3C//DTD SVG 1.1//EN" "http://www.w3.org/Graphics/SVG/1.1/DTD/svg11.dtd">
<svg width="100%" height="100%" viewBox="0 0 1600 800" version="1.1" xmlns="http://www.w3.org/2000/svg" xmlns:xlink="http://www.w3.org/1999/xlink" xml:space="preserve" xmlns:serif="http://www.serif.com/" style="fill-rule:evenodd;clip-rule:evenodd;stroke-linejoin:round;stroke-miterlimit:2;">
    <g id="arrow-bg" transform="matrix(2.83331,0,0,3.6811,-2412.26,-752.772)">
        <path d="M1416.11,204.497L1108.75,204.497L851.394,319.674L851.394,421.823L1343.11,421.823L1416.11,373.764L1416.11,204.497Z"/>
    </g>
    <g id="polygons">
        <g transform="matrix(1,0,0,1,151.863,169.288)">
            <path d="M442.889,363.757L668.107,527.388L582.082,792.148L303.696,792.148L217.67,527.388L442.889,363.757Z"/>
        </g>
        <g transform="matrix(1,0,0,1,-399.381,-44.9073)">
            <path d="M442.889,363.757L668.107,527.388L582.082,792.148L303.696,792.148L217.67,527.388L442.889,363.757Z" style="fill:url(#_Linear1);"/>
        </g>
        <g transform="matrix(1,0,0,1,-65.65,-276.269)">
            <path d="M442.889,363.757L668.107,527.388L582.082,792.148L303.696,792.148L217.67,527.388L442.889,363.757Z" style="fill:url(#_Linear2);"/>
        </g>
        <g transform="matrix(0.74538,0,0,0.74538,566.914,-74.5717)">
            <path d="M442.889,363.757L668.107,527.388L582.082,792.148L303.696,792.148L217.67,527.388L442.889,363.757Z" style="fill:url(#_Linear3);"/>
        </g>
        <g transform="matrix(0.568571,0,0,0.568571,640.122,251.614)">
            <path d="M442.889,363.757L668.107,527.388L582.082,792.148L303.696,792.148L217.67,527.388L442.889,363.757Z" style="fill:url(#_Linear4);"/>
        </g>
        <g transform="matrix(1,0,0,1,196.529,-119.517)">
            <path d="M442.889,363.757L668.107,527.388L582.082,792.148L303.696,792.148L217.67,527.388L442.889,363.757Z" style="fill:url(#_Linear5);"/>
        </g>
        <g transform="matrix(0.278036,0,0,0.278036,926.561,526.995)">
            <path d="M442.889,363.757L668.107,527.388L582.082,792.148L303.696,792.148L217.67,527.388L442.889,363.757Z" style="fill:url(#_Linear6);"/>
        </g>
        <g transform="matrix(0.347731,0,0,0.347731,850.194,584.193)">
            <path d="M442.889,363.757L668.107,527.388L582.082,792.148L303.696,792.148L217.67,527.388L442.889,363.757Z" style="fill:url(#_Linear7);"/>
        </g>
        <g transform="matrix(0.451867,0,0,0.451867,702.305,524.007)">
            <path d="M442.889,363.757L668.107,527.388L582.082,792.148L303.696,792.148L217.67,527.388L442.889,363.757Z" style="fill:url(#_Linear8);"/>
        </g>
        <g transform="matrix(0.684359,0,0,0.684359,900.735,351.714)">
            <path d="M442.889,363.757L668.107,527.388L582.082,792.148L303.696,792.148L217.67,527.388L442.889,363.757Z" style="fill:url(#_Linear9);"/>
        </g>
        <g transform="matrix(0.74538,0,0,0.74538,366.643,287.77)">
            <path d="M442.889,363.757L668.107,527.388L582.082,792.148L303.696,792.148L217.67,527.388L442.889,363.757Z" style="fill:url(#_Linear10);"/>
        </g>
        <g transform="matrix(1.24258,0,0,1.24258,-201.528,-184.304)">
            <path d="M442.889,363.757L668.107,527.388L582.082,792.148L303.696,792.148L217.67,527.388L442.889,363.757Z" style="fill:url(#_Linear11);"/>
        </g>
    </g>
    <g id="arrow-front" transform="matrix(1.11325,0,0,0.749427,-1047.6,483.874)">
        <path d="M1354.62,204.497L777.796,204.497L777.796,421.823L1354.62,421.823L1416.11,319.618L1354.62,204.497Z"/>
    </g>
    <g transform="matrix(0.536052,0,0,0.536052,31.7729,408.432)">
        <text x="82.644px" y="577.571px" style="font-family:'Zapfino', cursive;font-style:italic;font-size:119.391px;fill:url(#_Linear12);">ﬁnﬂexi</text>
    </g>
    <g transform="matrix(0.680799,0,0,0.536052,-27.7308,400.599)">
        <text x="160.367px" y="647.622px" style="font-family:'Avenir-Book', 'Avenir';font-size:67.158px;fill:white;">Invest in knowledge</text>
    </g>
    <defs>
        <linearGradient id="_Linear1" x1="0" y1="0" x2="1" y2="0" gradientUnits="userSpaceOnUse" gradientTransform="matrix(450.437,0,0,450.437,217.67,533.134)"><stop offset="0" style="stop-color:rgb(0,153,103);stop-opacity:0.1"/><stop offset="0.22" style="stop-color:rgb(0,194,130);stop-opacity:0.82"/><stop offset="0.5" style="stop-color:rgb(0,204,137);stop-opacity:1"/><stop offset="0.76" style="stop-color:rgb(0,216,145);stop-opacity:1"/><stop offset="1" style="stop-color:rgb(0,255,171);stop-opacity:1"/></linearGradient>
        <linearGradient id="_Linear2" x1="0" y1="0" x2="1" y2="0" gradientUnits="userSpaceOnUse" gradientTransform="matrix(450.437,0,0,450.437,217.67,533.134)"><stop offset="0" style="stop-color:rgb(0,153,103);stop-opacity:0.1"/><stop offset="0.22" style="stop-color:rgb(0,194,130);stop-opacity:0.82"/><stop offset="0.5" style="stop-color:rgb(0,204,137);stop-opacity:1"/><stop offset="0.76" style="stop-color:rgb(0,216,145);stop-opacity:1"/><stop offset="1" style="stop-color:rgb(0,255,171);stop-opacity:1"/></linearGradient>
        <linearGradient id="_Linear3" x1="0" y1="0" x2="1" y2="0" gradientUnits="userSpaceOnUse" gradientTransform="matrix(450.437,0,0,450.437,217.67,533.134)"><stop offset="0" style="stop-color:rgb(0,153,103);stop-opacity:0.1"/><stop offset="0.22" style="stop-color:rgb(0,194,130);stop-opacity:0.82"/><stop offset="0.5" style="stop-color:rgb(0,204,137);stop-opacity:1"/><stop offset="0.76" style="stop-color:rgb(0,216,145);stop-opacity:1"/><stop offset="1" style="stop-color:rgb(0,255,171);stop-opacity:1"/></linearGradient>
        <linearGradient id="_Linear4" x1="0" y1="0" x2="1" y2="0" gradientUnits="userSpaceOnUse" gradientTransform="matrix(450.437,0,0,450.437,217.67,532.745)"><stop offset="0" style="stop-color:rgb(148,0,114);stop-opacity:0.1"/><stop offset="0.24" style="stop-color:rgb(187,0,143);stop-opacity:0.79"/><stop offset="0.5" style="stop-color:rgb(199,0,152);stop-opacity:1"/><stop offset="0.77" style="stop-color:rgb(210,0,160);stop-opacity:1"/><stop offset="1" style="stop-color:rgb(249,0,191);stop-opacity:1"/></linearGradient>
        <linearGradient id="_Linear5" x1="0" y1="0" x2="1" y2="0" gradientUnits="userSpaceOnUse" gradientTransform="matrix(450.437,2.52901,-2.52901,450.437,217.67,531.28)"><stop offset="0" style="stop-color:rgb(43,65,146);stop-opacity:0.1"/><stop offset="0.23" style="stop-color:rgb(73,92,160);stop-opacity:0.8"/><stop offset="0.5" style="stop-color:rgb(82,99,164);stop-opacity:1"/><stop offset="0.76" style="stop-color:rgb(91,107,168);stop-opacity:1"/><stop offset="1" style="stop-color:rgb(120,133,181);stop-opacity:1"/></linearGradient>
        <linearGradient id="_Linear6" x1="0" y1="0" x2="1" y2="0" gradientUnits="userSpaceOnUse" gradientTransform="matrix(450.437,2.52901,-2.52901,450.437,217.67,531.28)"><stop offset="0" style="stop-color:rgb(43,65,146);stop-opacity:0.1"/><stop offset="0.23" style="stop-color:rgb(73,92,160);stop-opacity:0.8"/><stop offset="0.5" style="stop-color:rgb(82,99,164);stop-opacity:1"/><stop offset="0.76" style="stop-color:rgb(91,107,168);stop-opacity:1"/><stop offset="1" style="stop-color:rgb(120,133,181);stop-opacity:1"/></linearGradient>
        <linearGradient id="_Linear7" x1="0" y1="0" x2="1" y2="0" gradientUnits="userSpaceOnUse" gradientTransform="matrix(450.437,0,0,450.437,217.67,533.134)"><stop offset="0" style="stop-color:rgb(0,153,103);stop-opacity:0.1"/><stop offset="0.22" style="stop-color:rgb(0,194,130);stop-opacity:0.82"/><stop offset="0.5" style="stop-color:rgb(0,204,137);stop-opacity:1"/><stop offset="0.76" style="stop-color:rgb(0,216,145);stop-opacity:1"/><stop offset="1" style="stop-color:rgb(0,255,171);stop-opacity:1"/></linearGradient>
        <linearGradient id="_Linear8" x1="0" y1="0" x2="1" y2="0" gradientUnits="userSpaceOnUse" gradientTransform="matrix(450.437,2.52901,-2.52901,450.437,217.67,531.28)"><stop offset="0" style="stop-color:rgb(43,65,146);stop-opacity:0.1"/><stop offset="0.23" style="stop-color:rgb(73,92,160);stop-opacity:0.8"/><stop offset="0.5" style="stop-color:rgb(82,99,164);stop-opacity:1"/><stop offset="0.76" style="stop-color:rgb(91,107,168);stop-opacity:1"/><stop offset="1" style="stop-color:rgb(120,133,181);stop-opacity:1"/></linearGradient>
        <linearGradient id="_Linear9" x1="0" y1="0" x2="1" y2="0" gradientUnits="userSpaceOnUse" gradientTransform="matrix(450.437,0,0,450.437,217.67,532.745)"><stop offset="0" style="stop-color:rgb(148,0,114);stop-opacity:0.1"/><stop offset="0.24" style="stop-color:rgb(187,0,143);stop-opacity:0.79"/><stop offset="0.5" style="stop-color:rgb(199,0,152);stop-opacity:1"/><stop offset="0.77" style="stop-color:rgb(210,0,160);stop-opacity:1"/><stop offset="1" style="stop-color:rgb(249,0,191);stop-opacity:1"/></linearGradient>
        <linearGradient id="_Linear10" x1="0" y1="0" x2="1" y2="0" gradientUnits="userSpaceOnUse" gradientTransform="matrix(450.437,0,0,450.437,217.67,533.134)"><stop offset="0" style="stop-color:rgb(0,153,103);stop-opacity:0.1"/><stop offset="0.22" style="stop-color:rgb(0,194,130);stop-opacity:0.82"/><stop offset="0.5" style="stop-color:rgb(0,204,137);stop-opacity:1"/><stop offset="0.76" style="stop-color:rgb(0,216,145);stop-opacity:1"/><stop offset="1" style="stop-color:rgb(0,255,171);stop-opacity:1"/></linearGradient>
        <linearGradient id="_Linear11" x1="0" y1="0" x2="1" y2="0" gradientUnits="userSpaceOnUse" gradientTransform="matrix(450.437,0,0,450.437,217.67,532.745)"><stop offset="0" style="stop-color:rgb(148,0,114);stop-opacity:0.1"/><stop offset="0.24" style="stop-color:rgb(187,0,143);stop-opacity:0.79"/><stop offset="0.5" style="stop-color:rgb(199,0,152);stop-opacity:1"/><stop offset="0.77" style="stop-color:rgb(210,0,160);stop-opacity:1"/><stop offset="1" style="stop-color:rgb(249,0,191);stop-opacity:1"/></linearGradient>
        <linearGradient id="_Linear12" x1="0" y1="0" x2="1" y2="0" gradientUnits="userSpaceOnUse" gradientTransform="matrix(421.702,0,0,421.702,83.8714,521.497)"><stop offset="0" style="stop-color:rgb(249,0,191);stop-opacity:1"/><stop offset="0.5" style="stop-color:rgb(120,133,181);stop-opacity:1"/><stop offset="1" style="stop-color:rgb(0,255,171);stop-opacity:1"/></linearGradient>
    </defs>
</svg>
